<?xml version="1.0" encoding="utf-8"?>
<svg viewBox="0 0 500 500" xmlns="http://www.w3.org/2000/svg">
  <path class="st0" d="M 188.021 351.022 C 192.6 354.042 201.758 353.068 199.518 362.031 C 198.154 367.586 192.502 367.78 187.242 368.17 C 169.803 369.338 169.413 370.507 176.038 386.29 C 178.668 392.525 172.626 394.766 169.413 393.889 C 156.651 390.577 153.532 399.151 149.636 407.627 C 155.674 413.182 169.022 404.606 169.022 416.883 C 168.828 425.845 159.184 425.457 152.558 424.384 C 137.457 421.852 132 431.301 130.051 442.992 C 127.616 471.247 167.658 465.304 186.072 469.006 C 193.77 469.686 203.511 469.784 203.413 479.04 C 203.317 489.367 193.964 492.291 184.222 492.192 C 161.619 491.998 139.113 492.094 116.51 492.094 C 83.874 492.094 51.333 492.094 18.693 492.094 C 11.972 492.094 4.859 493.849 5.153 482.45 C 5.347 472.999 6.516 466.863 17.72 466.569 C 50.649 465.692 73.935 447.573 92.739 422.63 C 131.514 371.093 169.803 319.163 208.774 267.723 C 214.814 259.735 214.23 254.669 208.774 246.775 C 170.095 191.342 131.514 135.709 93.81 79.593 C 76.858 54.36 54.741 39.161 24.441 37.504 C 12.751 36.921 9.635 32.632 10.023 21.527 C 10.414 8.958 18.791 11.687 25.806 11.687 C 94.102 11.493 162.495 11.395 230.791 11.201 C 237.804 11.201 245.989 10.421 246.964 19.48 C 247.937 27.86 243.067 32.926 233.714 34.095 C 218.222 35.946 202.831 38.479 187.63 41.792 C 180.617 43.252 171.749 45.007 171.167 54.554 C 170.583 63.419 175.746 67.609 184.903 68.388 C 188.607 68.78 195.328 71.799 189.773 78.912 C 180.031 91.382 187.242 95.375 199.127 97.13 C 211.111 98.981 211.111 99.273 203.804 108.529 C 199.321 114.179 207.702 128.988 216.665 130.838 C 221.926 131.909 228.062 128.696 232.448 134.152 C 218.417 148.084 221.926 158.315 242.968 164.354 C 247.158 165.522 251.444 167.373 248.229 171.27 C 235.566 186.275 255.342 190.366 257.389 200.305 C 257.971 203.325 262.845 204.492 264.502 200.499 C 268.3 191.243 283.499 186.567 275.801 172.342 C 274.049 169.029 275.704 165.426 280.965 164.645 C 295.189 162.502 305.908 158.021 295.091 140.583 C 292.364 136.198 296.846 133.858 300.452 132.886 C 322.371 127.331 323.444 125.287 315.064 108.041 C 311.655 101.028 317.987 100.442 321.789 101.124 C 330.265 102.488 335.72 100.345 339.908 92.259 C 343.414 85.535 345.268 80.763 335.815 78.62 C 325.098 77.256 329.874 65.953 338.35 67.902 C 345.363 70.24 351.796 72.967 353.939 62.252 C 355.788 52.605 351.112 46.566 342.83 42.96 C 333.574 38.967 323.638 37.408 313.604 36.824 C 302.302 36.14 286.324 35.167 286.227 23.184 C 286.129 8.18 303.081 12.078 313.312 11.881 C 363.487 11.296 413.661 11.687 463.736 11.589 C 471.24 11.589 478.644 10.129 478.545 22.306 C 478.447 32.438 476.012 36.53 465.199 37.116 C 435.97 38.868 413.075 52.508 395.538 75.987 C 359.197 124.702 322.663 173.219 285.543 221.349 C 279.114 229.629 280.771 234.696 286.032 242.295 C 336.207 310.103 376.541 385.902 433.535 448.253 C 446.297 461.016 461.399 466.958 479.131 466.863 C 489.458 466.764 494.62 469.396 494.328 481.866 C 494.036 494.727 486.338 491.9 479.423 491.9 C 413.562 491.998 347.8 492.192 281.94 491.706 C 270.737 491.608 253.879 493.849 253.59 478.26 C 253.393 463.55 270.346 469.883 279.601 467.543 C 290.999 464.622 303.081 464.231 314.772 462.087 C 322.371 460.724 331.237 457.509 330.36 448.741 C 329.387 438.121 319.254 445.916 313.604 443.481 C 311.07 442.406 308.245 442.212 306.2 441.726 C 305.128 429.06 325.003 441.434 322.955 428.963 C 321.592 422.533 320.424 411.817 308.537 412.888 C 304.251 413.277 300.255 412.205 296.066 410.355 C 288.761 407.237 289.733 404.606 293.825 399.542 C 296.652 396.032 306.492 401.1 303.471 393.304 C 300.452 385.61 296.944 376.157 288.078 372.944 C 282.622 370.995 273.952 375.185 271.223 368.657 C 267.911 360.765 277.653 362.031 281.063 358.622 C 283.597 356.089 266.645 335.044 261.383 333.973 C 251.056 331.732 253.101 332.024 254.368 321.698 C 256.025 309.324 243.651 301.919 238.487 291.691 C 236.93 288.67 233.714 286.039 231.376 289.742 C 225.726 298.704 212.865 304.646 216.665 317.508 C 218.322 323.353 219.586 326.86 213.742 329.589 C 196.106 338.259 196.106 338.161 188.021 351.022 Z" style="fill: rgb(33, 56, 27);"/>
</svg>