<svg width="430" height="128" viewBox="0 0 430 128" fill="none" xmlns="http://www.w3.org/2000/svg">
<mask id="mask0_1251_4653" style="mask-type:luminance" maskUnits="userSpaceOnUse" x="288" y="25" width="126" height="78">
<path d="M288 25H413.281V102.094H288V25Z" fill="white"/>
</mask>
<g mask="url(#mask0_1251_4653)">
<mask id="mask1_1251_4653" style="mask-type:luminance" maskUnits="userSpaceOnUse" x="288" y="25" width="126" height="78">
<path d="M292.995 25H408.26C411.016 25 413.25 27.2344 413.25 29.9896V97.1042C413.25 99.8594 411.016 102.094 408.26 102.094H292.995C290.234 102.094 288 99.8594 288 97.1042V29.9896C288 27.2344 290.234 25 292.995 25Z" fill="white"/>
</mask>
<g mask="url(#mask1_1251_4653)">
<path d="M288 25H413.281V102.094H288V25Z" fill="#21381B"/>
</g>
</g>
<mask id="mask2_1251_4653" style="mask-type:luminance" maskUnits="userSpaceOnUse" x="25" y="25" width="272" height="78">
<path d="M25.9531 25.4111H297V102.505H25.9531V25.4111Z" fill="white"/>
</mask>
<g mask="url(#mask2_1251_4653)">
<mask id="mask3_1251_4653" style="mask-type:luminance" maskUnits="userSpaceOnUse" x="25" y="25" width="272" height="78">
<path d="M30.9373 25.4111H291.927C294.68 25.4111 296.912 27.6455 296.912 30.4007V97.5153C296.912 100.271 294.68 102.505 291.927 102.505H30.9373C28.1851 102.505 25.9531 100.271 25.9531 97.5153V30.4007C25.9531 27.6455 28.1851 25.4111 30.9373 25.4111Z" fill="white"/>
</mask>
<g mask="url(#mask3_1251_4653)">
<path d="M25.9531 25.4111H297V102.505H25.9531V25.4111Z" fill="white"/>
</g>
</g>
<path d="M30.1816 47.6878C30.1816 45.8441 30.7129 44.3753 31.7858 43.292C32.8691 42.2087 34.3379 41.667 36.2025 41.667H57.64C57.9316 42.141 58.1921 42.766 58.4316 43.542C58.6816 44.3232 58.8066 45.141 58.8066 46.0003C58.8066 47.6566 58.4421 48.8285 57.7233 49.5212C57.015 50.2191 56.0775 50.5628 54.9108 50.5628H41.2025V56.5837H55.8066C56.1087 57.0732 56.3796 57.6982 56.6191 58.4587C56.8535 59.2087 56.9733 60.016 56.9733 60.8753C56.9733 62.516 56.6243 63.6826 55.9316 64.3753C55.2493 65.0732 54.3275 65.417 53.1608 65.417H41.2025V72.2295H57.89C58.1921 72.7191 58.4629 73.3493 58.7025 74.1253C58.9368 74.9066 59.0566 75.7243 59.0566 76.5837C59.0566 78.2399 58.6921 79.417 57.9733 80.1253C57.265 80.8337 56.3275 81.1878 55.1608 81.1878H36.2025C34.3379 81.1878 32.8691 80.6566 31.7858 79.5837C30.7129 78.5003 30.1816 77.0316 30.1816 75.167V47.6878Z" fill="#21381B"/>
<path d="M63.0264 46.459C63.2347 45.8652 63.5316 45.2611 63.9222 44.6465C64.3076 44.0371 64.7972 43.4902 65.3805 43.0007C65.9639 42.5007 66.641 42.0944 67.4222 41.7715C68.2139 41.4382 69.0785 41.2715 70.0264 41.2715C71.2868 41.2715 72.391 41.584 73.3389 42.209C74.2972 42.834 75.266 43.9069 76.2555 45.4173L81.318 53.1465L88.7972 42.1257C89.141 41.9486 89.6305 41.7819 90.2555 41.6257C90.8805 41.4746 91.4951 41.3965 92.1097 41.3965C94.0941 41.3965 95.6514 41.8757 96.7764 42.834C97.9014 43.7819 98.4639 44.9486 98.4639 46.334C98.4639 47.5423 98.1514 48.6257 97.5264 49.584C96.9014 50.5319 96.0472 51.6777 94.9639 53.0215L88.2764 61.209L98.8597 76.334C98.5107 77.9329 97.7607 79.1986 96.6097 80.1257C95.4691 81.0527 93.9222 81.5215 91.9639 81.5215C90.7139 81.5215 89.6305 81.209 88.7139 80.584C87.8076 79.959 86.8857 78.8913 85.943 77.3757L80.6722 69.0632L72.5055 81.3965C72.1566 81.4382 71.8285 81.4642 71.5264 81.4798C71.2191 81.5059 70.9118 81.5215 70.6097 81.5215C68.1514 81.5215 66.3284 81.0267 65.1514 80.0423C63.9847 79.0423 63.4014 77.8079 63.4014 76.334C63.4014 75.0736 63.6722 73.9746 64.2139 73.0423C64.7555 72.1152 65.5264 71.0215 66.5264 69.7715L73.3389 61.0007L63.0264 46.459Z" fill="#21381B"/>
<path d="M124.812 49.5833C121.479 49.5833 118.922 50.6042 117.146 52.6458C115.38 54.6771 114.5 57.5521 114.5 61.2708C114.5 65.0365 115.479 67.9375 117.438 69.9792C119.406 72.0104 122.062 73.0208 125.396 73.0208C127.172 73.0208 128.677 72.7865 129.917 72.3125C131.151 71.8281 132.333 71.2865 133.458 70.6875C134.193 71.2865 134.76 72.0104 135.167 72.8542C135.583 73.7031 135.792 74.6875 135.792 75.8125C135.792 77.5781 134.802 79.0781 132.833 80.3125C130.859 81.5469 127.865 82.1667 123.854 82.1667C120.948 82.1667 118.219 81.7552 115.667 80.9375C113.109 80.1198 110.88 78.8542 108.979 77.1458C107.073 75.4375 105.568 73.2708 104.458 70.6458C103.359 68.0208 102.812 64.8958 102.812 61.2708C102.812 57.8958 103.339 54.9271 104.396 52.3542C105.464 49.7708 106.917 47.5937 108.75 45.8125C110.594 44.0365 112.75 42.6979 115.208 41.7917C117.677 40.8906 120.318 40.4375 123.125 40.4375C127.109 40.4375 130.193 41.0833 132.375 42.375C134.568 43.6667 135.667 45.3333 135.667 47.375C135.667 48.5 135.38 49.474 134.812 50.2917C134.255 51.1146 133.609 51.7656 132.875 52.25C131.75 51.5156 130.547 50.8906 129.271 50.375C127.99 49.849 126.505 49.5833 124.812 49.5833Z" fill="#21381B"/>
<path d="M141.838 47.6878C141.838 45.8441 142.369 44.3753 143.442 43.292C144.525 42.2087 145.994 41.667 147.859 41.667H169.296C169.588 42.141 169.848 42.766 170.088 43.542C170.338 44.3232 170.463 45.141 170.463 46.0003C170.463 47.6566 170.098 48.8285 169.38 49.5212C168.671 50.2191 167.734 50.5628 166.567 50.5628H152.859V56.5837H167.463C167.765 57.0732 168.036 57.6982 168.275 58.4587C168.51 59.2087 168.63 60.016 168.63 60.8753C168.63 62.516 168.281 63.6826 167.588 64.3753C166.906 65.0732 165.984 65.417 164.817 65.417H152.859V72.2295H169.546C169.848 72.7191 170.119 73.3493 170.359 74.1253C170.593 74.9066 170.713 75.7243 170.713 76.5837C170.713 78.2399 170.348 79.417 169.63 80.1253C168.921 80.8337 167.984 81.1878 166.817 81.1878H147.859C145.994 81.1878 144.525 80.6566 143.442 79.5837C142.369 78.5003 141.838 77.0316 141.838 75.167V47.6878Z" fill="#21381B"/>
<path d="M188.705 72.5625C189.174 72.6458 189.757 72.724 190.455 72.7917C191.147 72.8646 191.793 72.8958 192.392 72.8958C193.861 72.8958 195.215 72.6823 196.455 72.25C197.689 71.8073 198.752 71.1354 199.642 70.2292C200.528 69.3125 201.215 68.1354 201.705 66.6875C202.205 65.2448 202.455 63.5 202.455 61.4583C202.455 57.5729 201.543 54.6406 199.726 52.6667C197.918 50.6979 195.496 49.7083 192.455 49.7083C191.856 49.7083 191.236 49.7292 190.601 49.7708C189.976 49.8125 189.34 49.8854 188.705 49.9792V72.5625ZM192.33 82.0417C191.59 82.0417 190.746 82.0208 189.788 81.9792C188.84 81.9375 187.861 81.8438 186.851 81.7083C185.835 81.5833 184.814 81.4219 183.788 81.2292C182.772 81.0312 181.835 80.7656 180.976 80.4167C178.601 79.5156 177.413 77.9323 177.413 75.6667V45.3542C177.413 44.4531 177.653 43.75 178.142 43.25C178.642 42.75 179.33 42.349 180.205 42.0417C182.064 41.4479 184.028 41.0521 186.101 40.8542C188.184 40.6615 190.043 40.5625 191.684 40.5625C195.059 40.5625 198.121 40.974 200.871 41.7917C203.621 42.6146 205.976 43.875 207.934 45.5833C209.903 47.2917 211.434 49.4479 212.517 52.0417C213.601 54.6406 214.142 57.7188 214.142 61.2708C214.142 64.7292 213.621 67.75 212.58 70.3333C211.549 72.9062 210.069 75.0625 208.142 76.8125C206.21 78.5625 203.903 79.875 201.226 80.75C198.543 81.6094 195.58 82.0417 192.33 82.0417Z" fill="#21381B"/>
<path d="M220.647 47.6878C220.647 45.8441 221.179 44.3753 222.252 43.292C223.335 42.2087 224.804 41.667 226.668 41.667H248.106C248.397 42.141 248.658 42.766 248.897 43.542C249.147 44.3232 249.272 45.141 249.272 46.0003C249.272 47.6566 248.908 48.8285 248.189 49.5212C247.481 50.2191 246.543 50.5628 245.377 50.5628H231.668V56.5837H246.272C246.575 57.0732 246.845 57.6982 247.085 58.4587C247.319 59.2087 247.439 60.016 247.439 60.8753C247.439 62.516 247.09 63.6826 246.397 64.3753C245.715 65.0732 244.793 65.417 243.627 65.417H231.668V72.2295H248.356C248.658 72.7191 248.929 73.3493 249.168 74.1253C249.403 74.9066 249.522 75.7243 249.522 76.5837C249.522 78.2399 249.158 79.417 248.439 80.1253C247.731 80.8337 246.793 81.1878 245.627 81.1878H226.668C224.804 81.1878 223.335 80.6566 222.252 79.5837C221.179 78.5003 220.647 77.0316 220.647 75.167V47.6878Z" fill="#21381B"/>
<path d="M291.847 79.6465C291.248 80.2454 290.373 80.7038 289.222 81.0215C288.065 81.3548 286.69 81.5215 285.097 81.5215C283.498 81.5215 281.982 81.2819 280.555 80.8132C279.123 80.3288 277.956 79.1829 277.055 77.3757L270.618 64.2507C269.977 62.9069 269.394 61.6413 268.868 60.459C268.352 59.2663 267.789 57.8913 267.18 56.334L266.784 56.3965C266.961 58.7298 267.06 61.1152 267.076 63.5423C267.102 65.959 267.118 68.3444 267.118 70.6882V80.7507C266.644 80.8757 265.92 81.0007 264.951 81.1257C263.977 81.2611 263.013 81.334 262.055 81.334C261.097 81.334 260.248 81.2611 259.513 81.1257C258.774 81.0007 258.17 80.7454 257.701 80.3548C257.227 79.9694 256.857 79.4382 256.597 78.7715C256.347 78.0944 256.222 77.209 256.222 76.1257V43.6673C256.815 42.8079 257.743 42.1621 258.993 41.7298C260.253 41.3027 261.602 41.084 263.034 41.084C264.628 41.084 266.149 41.334 267.597 41.834C269.055 42.3236 270.211 43.4538 271.076 45.2298L277.576 58.3548C278.211 59.6882 278.789 60.9538 279.305 62.1465C279.831 63.3288 280.399 64.7038 281.013 66.2715L281.326 66.209C281.159 63.8652 281.055 61.5215 281.013 59.1882C280.972 56.8548 280.951 54.5163 280.951 52.1673V41.6673C281.42 41.5319 282.144 41.3965 283.118 41.2715C284.086 41.1465 285.055 41.084 286.013 41.084C287.914 41.084 289.357 41.4173 290.347 42.084C291.347 42.7507 291.847 44.1465 291.847 46.2715V79.6465Z" fill="#21381B"/>
<path d="M303.477 50.7507C303.17 50.2819 302.883 49.6361 302.623 48.8132C302.373 47.9798 302.248 47.1152 302.248 46.209C302.248 44.5163 302.623 43.3027 303.373 42.5632C304.133 41.8288 305.123 41.459 306.331 41.459H334.644C334.946 41.9486 335.227 42.5996 335.477 43.4173C335.738 44.2402 335.873 45.0996 335.873 46.0007C335.873 47.6986 335.488 48.9121 334.727 49.6465C333.977 50.3861 332.998 50.7507 331.79 50.7507H324.581V80.7507C324.107 80.8757 323.357 81.0007 322.331 81.1257C321.316 81.2611 320.316 81.334 319.331 81.334C318.331 81.334 317.446 81.2559 316.686 81.1048C315.936 80.9538 315.295 80.6829 314.769 80.2923C314.253 79.9069 313.863 79.3652 313.602 78.6673C313.352 77.9746 313.227 77.0632 313.227 75.9382V50.7507H303.477Z" fill="white"/>
<path d="M341.404 47.6878C341.404 45.8441 341.936 44.3753 343.008 43.292C344.092 42.2087 345.561 41.667 347.425 41.667H368.863C369.154 42.141 369.415 42.766 369.654 43.542C369.904 44.3232 370.029 45.141 370.029 46.0003C370.029 47.6566 369.665 48.8285 368.946 49.5212C368.238 50.2191 367.3 50.5628 366.133 50.5628H352.425V56.5837H367.029C367.331 57.0732 367.602 57.6982 367.842 58.4587C368.076 59.2087 368.196 60.016 368.196 60.8753C368.196 62.516 367.847 63.6826 367.154 64.3753C366.472 65.0732 365.55 65.417 364.383 65.417H352.425V72.2295H369.113C369.415 72.7191 369.686 73.3493 369.925 74.1253C370.16 74.9066 370.279 75.7243 370.279 76.5837C370.279 78.2399 369.915 79.417 369.196 80.1253C368.488 80.8337 367.55 81.1878 366.383 81.1878H347.425C345.561 81.1878 344.092 80.6566 343.008 79.5837C341.936 78.5003 341.404 77.0316 341.404 75.167V47.6878Z" fill="white"/>
<path d="M388.124 65.3542C386.218 64.7031 384.489 64.0417 382.937 63.375C381.38 62.7083 380.041 61.9063 378.916 60.9583C377.791 60 376.916 58.8646 376.291 57.5417C375.666 56.224 375.354 54.6042 375.354 52.6875C375.354 49.0208 376.77 46.0833 379.604 43.875C382.437 41.6667 386.406 40.5625 391.52 40.5625C393.38 40.5625 395.109 40.6979 396.708 40.9583C398.301 41.2083 399.671 41.6042 400.812 42.1458C401.963 42.6875 402.864 43.3854 403.52 44.2292C404.171 45.0781 404.499 46.0625 404.499 47.1875C404.499 48.3125 404.234 49.2813 403.708 50.0833C403.192 50.875 402.567 51.5521 401.833 52.1042C400.874 51.5104 399.593 50.9792 397.999 50.5208C396.4 50.0625 394.65 49.8333 392.749 49.8333C390.801 49.8333 389.374 50.1042 388.458 50.6458C387.551 51.1875 387.104 51.8698 387.104 52.6875C387.104 53.3438 387.38 53.875 387.937 54.2917C388.505 54.6979 389.354 55.0729 390.479 55.4167L393.916 56.5208C397.984 57.8281 401.109 59.4896 403.291 61.5C405.468 63.5156 406.562 66.25 406.562 69.7083C406.562 73.3906 405.109 76.3698 402.208 78.6458C399.317 80.9115 395.062 82.0417 389.437 82.0417C387.437 82.0417 385.583 81.875 383.874 81.5417C382.166 81.2188 380.671 80.75 379.395 80.125C378.114 79.5 377.124 78.724 376.416 77.7917C375.708 76.8646 375.354 75.7917 375.354 74.5833C375.354 73.3229 375.718 72.2448 376.458 71.3542C377.192 70.4688 377.989 69.7865 378.854 69.3125C380.062 70.2708 381.541 71.099 383.291 71.7917C385.051 72.474 386.968 72.8125 389.041 72.8125C391.166 72.8125 392.656 72.4948 393.52 71.8542C394.38 71.2031 394.812 70.4479 394.812 69.5833C394.812 68.7083 394.463 68.0521 393.77 67.6042C393.088 67.1458 392.114 66.7031 390.854 66.2708L388.124 65.3542Z" fill="white"/>
</svg>
