<svg width="54" height="59" viewBox="0 0 54 59" fill="none" xmlns="http://www.w3.org/2000/svg">
<path d="M26.9691 38.6975C30.5732 38.6975 33.4949 35.4181 33.4949 31.3727C33.4949 27.3273 30.5732 24.0479 26.9691 24.0479C23.365 24.0479 20.4434 27.3273 20.4434 31.3727C20.4434 35.4181 23.365 38.6975 26.9691 38.6975Z" fill="#4A5568"/>
<path d="M44.9149 16.7233H38.899C38.5931 16.7233 38.2138 16.5013 37.9181 16.151L35.2731 11.4654C35.2313 11.3911 35.1846 11.3203 35.1334 11.2537C34.2198 10.0577 32.985 9.39844 31.6595 9.39844H22.2787C20.9531 9.39844 19.7183 10.0577 18.8047 11.2537C18.7536 11.3203 18.7069 11.3911 18.665 11.4654L16.0201 16.1579C15.7937 16.4349 15.4756 16.7302 15.1411 16.7302V15.8145C15.1411 15.3289 14.9692 14.8631 14.6633 14.5197C14.3573 14.1763 13.9424 13.9833 13.5097 13.9833H11.0625C10.6298 13.9833 10.2149 14.1763 9.90892 14.5197C9.60297 14.8631 9.43109 15.3289 9.43109 15.8145V16.7302H9.02323C7.72559 16.7317 6.48148 17.3109 5.56391 18.3409C4.64634 19.3708 4.13026 20.7673 4.12891 22.2238V44.1915C4.13026 45.648 4.64634 47.0445 5.56391 48.0744C6.48148 49.1043 7.72559 49.6836 9.02323 49.6851H44.9149C46.2126 49.6836 47.4567 49.1043 48.3742 48.0744C49.2918 47.0445 49.8079 45.648 49.8092 44.1915V22.2169C49.8079 20.7604 49.2918 19.3639 48.3742 18.334C47.4567 17.3041 46.2126 16.7248 44.9149 16.7233ZM26.9691 42.3603C25.0331 42.3603 23.1405 41.7159 21.5308 40.5086C19.9211 39.3013 18.6664 37.5853 17.9255 35.5776C17.1847 33.57 16.9908 31.3608 17.3685 29.2295C17.7462 27.0982 18.6785 25.1404 20.0475 23.6038C21.4164 22.0672 23.1606 21.0208 25.0594 20.5968C26.9582 20.1729 28.9264 20.3905 30.715 21.2221C32.5037 22.0537 34.0324 23.4619 35.108 25.2688C36.1836 27.0756 36.7577 29.1999 36.7577 31.373C36.7547 34.286 35.7225 37.0787 33.8874 39.1385C32.0523 41.1983 29.5643 42.3569 26.9691 42.3603V42.3603Z" fill="#4A5568"/>
</svg>
